<svg width="164" height="44" viewBox="0 0 164 44" fill="none" xmlns="http://www.w3.org/2000/svg">
<path d="M10.3913 43.8098L0.913116 33.9307L158.774 33.9665L148.991 43.8096L10.3913 43.8098Z" fill="white"/>
<path d="M55.6986 43.3529L46.2907 33.9306L93.2576 33.9666L103.139 43.8629L55.6986 43.3529Z" fill="white"/>
<path d="M0.937543 0.726533L14.2192 0.730229L14.21 33.9344L0.928302 33.9307L0.937543 0.726533Z" fill="white"/>
<path d="M34.029 0.725746L47.3439 0.729453L14.124 33.9308L14.2185 20.6292L34.029 0.725746Z" fill="white"/>
<path d="M56.8571 0.72952L70.1721 0.733227L36.9522 33.9346L22.9672 33.9309L56.8571 0.72952Z" fill="white"/>
<path d="M79.5176 0.84835L92.8325 0.852057L59.6127 34.0534L45.6276 34.0497L79.5176 0.84835Z" fill="white"/>
<path fill-rule="evenodd" clip-rule="evenodd" d="M85.9624 34.0407L99.5157 20.7629L112.959 20.7666L99.6739 34.0446L85.9624 34.0407Z" fill="white"/>
<path fill-rule="evenodd" clip-rule="evenodd" d="M85.9377 14.0788L99.491 0.800925L112.935 0.804667L99.6492 14.0826L85.9377 14.0788Z" fill="white"/>
<path fill-rule="evenodd" clip-rule="evenodd" d="M85.8741 14.0892L99.2583 20.7974L112.794 20.7974L99.5856 14.0854L85.8741 14.0892Z" fill="white"/>
<path d="M58.467 25.602H95.6633V34.0303H58.467V25.602Z" fill="white"/>
<path d="M81.7344 0.804677H102.784V9.23302H81.7344V0.804677Z" fill="white"/>
<path d="M142.434 1.04523L155.749 1.04894L122.529 34.2503L108.544 34.2466L142.434 1.04523Z" fill="white"/>
<path d="M121.384 25.7987H158.58V34.227H121.384V25.7987Z" fill="white"/>
<path d="M142.405 0.705811H163.454V9.13415H142.405V0.705811Z" fill="white"/>
<path d="M134.218 13.4862H155.268V21.9145H134.218V13.4862Z" fill="white"/>
</svg>
